<svg width="128" height="128" viewBox="0 0 128 128" fill="none" xmlns="http://www.w3.org/2000/svg">
<rect width="128" height="128" fill="white"/>
<path d="M86.8755 114.342H111.737C113.568 114.342 114.641 112.328 113.58 110.869L44.3718 14.9406C43.95 14.3497 43.2631 14 42.528 14H17.6669C15.8352 14 14.7627 16.0138 15.8231 17.473L85.0317 113.401C85.4414 113.992 86.1404 114.342 86.8755 114.342Z" fill="#0056D2"/>
<path d="M43.299 114.655H15.8952C14.3647 114.655 13.4609 112.919 14.3527 111.665L48.9027 63.2001C49.3486 62.5731 50.0837 62.1872 50.855 62.1872H77.0658C78.9939 62.1872 80.1267 64.3337 79.018 65.9013L44.8295 113.859C44.48 114.366 43.9136 114.655 43.299 114.655Z" fill="#00E7C5"/>
<path d="M80.4643 42.9051C87.3462 42.9051 92.925 37.3226 92.925 30.4362C92.925 23.5498 87.3462 17.9673 80.4643 17.9673C73.5825 17.9673 68.0037 23.5498 68.0037 30.4362C68.0037 37.3226 73.5825 42.9051 80.4643 42.9051Z" fill="#00E7C5"/>
</svg>
